PathFileType	4	(X/Y/Z)	./resultDataOpenSim/trcMotMarkerGrf/sub06/qtm-15-01.trc
DataRate	CameraRate	NumFrames	NumMarkers	Units	OrigDataRate	OrigDataStartFrame	OrigNumFrames
250.000000	250.000000	11	24	m	250.000000	1	513
Frame#	Time	L.Toe.Tip			R.Toe.Tip			L.Ankle.Lat			R.Ankle.Lat			L.Ankle.Med			R.Ankle.Med			L.Heel			R.Heel			L.Knee.Lat			R.Knee.Lat			L.Knee.Med			R.Knee.Med			L.Thigh.Upper			R.Thigh.Upper			L.ASIS			R.ASIS			V.Sacral			L.Acromium			R.Acromium			C7			L.Elbow			R.Elbow			L.Wrist.Lat			R.Wrist.Lat
		X1	Y1	Z1	X2	Y2	Z2	X3	Y3	Z3	X4	Y4	Z4	X5	Y5	Z5	X6	Y6	Z6	X7	Y7	Z7	X8	Y8	Z8	X9	Y9	Z9	X10	Y10	Z10	X11	Y11	Z11	X12	Y12	Z12	X13	Y13	Z13	X14	Y14	Z14	X15	Y15	Z15	X16	Y16	Z16	X17	Y17	Z17	X18	Y18	Z18	X19	Y19	Z19	X20	Y20	Z20	X21	Y21	Z21	X22	Y22	Z22	X23	Y23	Z23	X24	Y24	Z24

1	0	-1.5515131	0.031914448	-0.078693531	-0.84233701	0.13476521	0.14886847	-1.6646221	0.088152777	-0.094186996	-0.96958618	0.091254415	0.16821829	-1.6547477	0.09866532	-0.0092903054	-0.96149729	0.11689351	0.08148347	NaN	NaN	NaN	-1.0012401	0.039300533	0.10163131	-1.4695175	0.40790878	-0.10612197	-1.1166206	0.44948476	0.16312997	-1.4847527	0.41403321	0.015832513	-1.1363652	0.41677797	0.033062832	-1.3556012	0.77654912	-0.1596765	-1.3000207	0.76778178	0.19112018	-1.2646863	0.81428474	-0.12502052	-1.2304577	0.81835778	0.12007053	-1.4191282	0.89567062	0.020554089	-1.2677336	1.3049984	-0.1610871	-1.2812949	1.2825017	0.20166313	-1.347183	1.33734	0.018711593	-1.2262437	0.98710694	-0.2470526	-1.4418384	1.0116138	0.24959467	-0.99484738	0.90239958	-0.20329576	-1.4089699	0.7798268	0.300676
2	0.004	-1.5514417	0.031902275	-0.078743182	-0.83340089	0.13541163	0.14861326	-1.6635193	0.089553685	-0.094669593	-0.96020732	0.091335561	0.16780664	-1.6542544	0.099910501	-0.0096450689	-0.95251638	0.11704228	0.081224029	NaN	NaN	NaN	-0.99177417	0.039126789	0.1012165	-1.465201	0.40747915	-0.10625919	-1.1090028	0.44860124	0.16323907	-1.4801065	0.41357448	0.015692971	-1.1292546	0.41573712	0.033111457	-1.3498304	0.77544816	-0.15917403	-1.2931913	0.76633103	0.19136888	-1.2587989	0.81277308	-0.12506055	-1.2234821	0.81677101	0.11990866	-1.4128815	0.89558028	0.021307214	-1.261061	1.3037547	-0.16044274	-1.2751103	1.2812763	0.20242651	-1.3406222	1.3360737	0.019426881	-1.2181169	0.98593315	-0.2462941	-1.4364253	1.0111454	0.24984042	-0.9862435	0.90284988	-0.20186664	-1.4060639	0.77934376	0.30160254
3	0.008	-1.5513728	0.031888997	-0.078798379	-0.82481784	0.13577482	0.14827572	-1.6622351	0.090991368	-0.095178865	-0.95126066	0.091238205	0.16736247	-1.6534765	0.10129617	-0.010099335	-0.94390756	0.11698262	0.0809164	NaN	NaN	NaN	-0.98277301	0.038812235	0.10076973	-1.4607827	0.40704243	-0.10637295	-1.1014128	0.44780167	0.16330021	-1.4755667	0.41308018	0.015611266	-1.1219656	0.41496092	0.033160975	-1.3439927	0.77437181	-0.15864256	-1.2863216	0.7649654	0.19162498	-1.2527969	0.81132919	-0.12518775	-1.2163652	0.8152506	0.11972992	-1.406297	0.89519299	0.022781565	-1.2543502	1.3025396	-0.15976363	-1.2688703	1.2800691	0.20318798	-1.3339912	1.3348324	0.020276914	-1.2100277	0.98478823	-0.24548759	-1.4309693	1.0106878	0.25009512	-0.97768576	0.90326912	-0.20042964	-1.4031486	0.77885537	0.30256958
4	0.012	-1.5512997	0.031875689	-0.078862926	-0.81680899	0.13567191	0.14778634	-1.6607331	0.092496975	-0.095731109	-0.94302061	0.09081922	0.16690614	-1.652327	0.10286266	-0.010688729	-0.9359071	0.11657468	0.080530868	NaN	NaN	NaN	-0.97453121	0.038259279	0.1003199	-1.456187	0.40659244	-0.10645809	-1.0938281	0.4471197	0.16329853	-1.4710277	0.41257847	0.015578568	-1.1143841	0.41459419	0.033220563	-1.3380434	0.77333019	-0.1580629	-1.2794432	0.76372361	0.19189511	-1.2466218	0.81004242	-0.12538111	-1.2090662	0.81384477	0.11953296	-1.3990918	0.89440698	0.025630662	-1.2475554	1.3013716	-0.15904388	-1.2625462	1.2788938	0.20395444	-1.3272746	1.3336323	0.021238691	-1.2019905	0.98368389	-0.24461019	-1.4254332	1.0102486	0.25036708	-0.96920951	0.90363496	-0.19899955	-1.4000482	0.77839502	0.30360019
5	0.016	-1.5512153	0.031864571	-0.078935061	-0.80945988	0.13503545	0.14710683	-1.6592236	0.094083041	-0.096298122	-0.93557311	0.09002823	0.16645636	-1.6509358	0.10456552	-0.011364049	-0.92859981	0.11577269	0.080065854	NaN	NaN	NaN	-0.96716068	0.037424554	0.099926123	-1.4513864	0.40612466	-0.10653007	-1.0862149	0.44654811	0.16324323	-1.4662838	0.41213349	0.015535904	-1.10652	0.4146284	0.033290792	-1.3319786	0.77232316	-0.15743387	-1.2726256	0.76260743	0.19217369	-1.2402963	0.80897187	-0.12552952	-1.2016582	0.81257699	0.1193251	-1.3912492	0.89338629	0.029877803	-1.2406581	1.3002603	-0.15829329	-1.2561402	1.277758	0.20473448	-1.3205158	1.3324874	0.022176197	-1.1940172	0.98261813	-0.24366795	-1.4198029	1.0098314	0.25065893	-0.96085625	0.90392893	-0.19760498	-1.3965538	0.77800668	0.30469084
6	0.02	-1.5511171	0.031856828	-0.079011572	-0.80277046	0.13385733	0.14623448	-1.6579544	0.095748981	-0.096839732	-0.928879	0.088895503	0.16598912	-1.6494932	0.10634511	-0.01204329	-0.92196736	0.11459832	0.079532359	NaN	NaN	NaN	-0.9606546	0.036311011	0.099610045	-1.4463721	0.40563521	-0.10661807	-1.0785289	0.44607632	0.16314209	-1.4612744	0.4117568	0.01544862	-1.0984566	0.41496741	0.033364566	-1.3258054	0.77134892	-0.15676405	-1.2658255	0.76162775	0.1924666	-1.2338745	0.80810047	-0.12553761	-1.1942332	0.81144748	0.11911745	-1.3831242	0.89237719	0.034628981	-1.2336666	1.299209	-0.1575126	-1.2496569	1.2766652	0.20553264	-1.3137419	1.3314049	0.023010263	-1.1861128	0.9815871	-0.24267861	-1.414072	1.0094381	0.2509677	-0.95264452	0.90413607	-0.19625527	-1.3926783	0.7776937	0.30580582
7	0.024	-1.5510038	0.031851582	-0.079090901	-0.79671205	0.13214626	0.14520369	-1.6568345	0.09748939	-0.097381023	-0.92287347	0.087467341	0.16547094	-1.6480563	0.10817714	-0.012696359	-0.91596417	0.11310113	0.078937322	NaN	NaN	NaN	-0.95496072	0.034959495	0.099332701	-1.4411366	0.40512088	-0.10673872	-1.070736	0.44569644	0.16299605	-1.4560993	0.41138419	0.015343066	-1.0902727	0.41550987	0.033450216	-1.3195259	0.77041089	-0.15606509	-1.2588861	0.76081398	0.19281002	-1.2273939	0.80736071	-0.12538847	-1.1868253	0.8104481	0.11892964	-1.375231	0.89151928	0.03864161	-1.2266058	1.2982174	-0.15669304	-1.2430954	1.27562	0.20635113	-1.3069407	1.3303794	0.023770589	-1.1782834	0.98059627	-0.24166113	-1.4082366	1.0090689	0.25128857	-0.9445629	0.90425323	-0.1949334	-1.3886055	0.77742294	0.30690017
8	0.028	-1.5508733	0.031847012	-0.079170682	-0.79125261	0.12991905	0.14407733	-1.6555176	0.099297654	-0.097976991	-0.91751262	0.085772482	0.16488562	-1.6465175	0.11007629	-0.013366885	-0.91055617	0.11133066	0.078285105	NaN	NaN	NaN	-0.95002239	0.033422417	0.099020839	-1.4356784	0.40457626	-0.10686733	-1.0628503	0.44538742	0.16280713	-1.4508279	0.41094254	0.015269809	-1.0820159	0.41618125	0.033574665	-1.3131359	0.76951321	-0.15534422	-1.2516892	0.76018137	0.19323243	-1.2208607	0.80668622	-0.12512459	-1.1793869	0.80957701	0.11878489	-1.3678623	0.89083063	0.041210119	-1.2195035	1.2972829	-0.15583155	-1.2364529	1.2746268	0.20719255	-1.3000899	1.329402	0.024520115	-1.1705385	0.97965483	-0.24063259	-1.4022951	1.0087198	0.25161758	-0.93658528	0.90428888	-0.19361285	-1.3844442	0.77716977	0.30795964
9	0.032	-1.5507218	0.031843886	-0.079248536	-0.78636566	0.12720466	0.14291984	-1.6538384	0.10117267	-0.098620885	-0.91277268	0.083830282	0.16422949	-1.6448182	0.11204847	-0.014085168	-0.90571907	0.10932771	0.077583063	NaN	NaN	NaN	-0.94579734	0.031732483	0.098621438	-1.4300041	0.40399141	-0.10695737	-1.0549126	0.44512067	0.16258247	-1.4454003	0.41042013	0.015242649	-1.0737201	0.41692305	0.03375963	-1.3066288	0.76864845	-0.15459525	-1.2442478	0.75971513	0.19372015	-1.214267	0.8060399	-0.12479943	-1.1718155	0.80884675	0.11870574	-1.3609298	0.89025486	0.042507797	-1.2123761	1.296401	-0.15493819	-1.2297335	1.2736886	0.20805934	-1.2931791	1.3284678	0.025296914	-1.1628802	0.97876177	-0.23959409	-1.3962476	1.0083863	0.25195469	-0.92868926	0.90425221	-0.19227497	-1.3801875	0.77693018	0.30899255
10	0.036	-1.5505428	0.031846332	-0.079324096	-0.78203701	0.12404917	0.14177219	-1.6518646	0.10312644	-0.099281955	-0.90863453	0.08166422	0.16350222	-1.643169	0.11404667	-0.014776756	-0.90142817	0.10712426	0.076839546	NaN	NaN	NaN	-0.94227119	0.029914937	0.098132086	-1.424105	0.40335455	-0.10699442	-1.0469446	0.44488185	0.16233004	-1.4396866	0.40985443	0.015220974	-1.0654166	0.41768183	0.033994132	-1.3000014	0.76779896	-0.15381155	-1.2366625	0.75937898	0.19424003	-1.2076027	0.80541697	-0.12444292	-1.1639757	0.80827965	0.11872022	-1.3541155	0.88971533	0.043210512	-1.2052165	1.2955691	-0.15402179	-1.2229424	1.2728073	0.20895011	-1.2862078	1.3275745	0.026109432	-1.1552908	0.97790819	-0.23851016	-1.390095	1.0080702	0.25230593	-0.92086625	0.904148	-0.19091926	-1.375842	0.77669673	0.30999542
11	0.04	-1.5503258	0.031856697	-0.07939921	-0.77826491	0.12051993	0.14064459	-1.6496271	0.10518542	-0.099986998	-0.90507092	0.079304398	0.16270759	-1.6418268	0.11601678	-0.015341338	-0.89766094	0.10474169	0.076056153	NaN	NaN	NaN	-0.93947544	0.028046348	0.097585471	-1.4179538	0.40265685	-0.10700646	-1.0389434	0.44467908	0.16205028	-1.433597	0.40925952	0.015153679	-1.0571333	0.41841681	0.034235596	-1.2932602	0.76695673	-0.15300583	-1.2290059	0.7591346	0.1947758	-1.2008533	0.80482927	-0.12405694	-1.1557506	0.80788728	0.11885242	-1.3471187	0.88917198	0.043916366	-1.1980056	1.29479	-0.15307895	-1.2160833	1.2719822	0.20985966	-1.2791801	1.3267157	0.026951653	-1.147744	0.97708857	-0.23732449	-1.3838384	1.0077759	0.25268002	-0.91312097	0.90398013	-0.18955993	-1.371486	0.77645495	0.31095482
